<mxfile host="app.diagrams.net" modified="2021-04-14T08:42:43.500Z" agent="5.0 (Macintosh; Intel Mac OS X 11_0_1) AppleWebKit/537.36 (KHTML, like Gecko) Chrome/89.0.4389.114 Safari/537.36" etag="B6nOVTmLVJlN4eWBev-P" version="14.5.10" type="github">
  <diagram id="vsF4h8daFLHWhHonLzY4" name="Page-1">
    <mxGraphModel dx="883" dy="517" grid="1" gridSize="10" guides="1" tooltips="1" connect="1" arrows="1" fold="1" page="1" pageScale="1" pageWidth="827" pageHeight="1169" math="0" shadow="0">
      <root>
        <mxCell id="0" />
        <mxCell id="1" parent="0" />
        <mxCell id="gnzne0h1tfCOuvKG9ZBm-1" value="&lt;font style=&quot;font-size: 20px&quot;&gt;&lt;font style=&quot;font-size: 20px&quot;&gt;业务MySQL&lt;/font&gt;&lt;br&gt;&lt;/font&gt;&lt;font style=&quot;font-size: 11px&quot;&gt;机房：bi&lt;br style=&quot;font-size: 11px&quot;&gt;连接名:sasbi&lt;br style=&quot;font-size: 11px&quot;&gt;数据库名:sasbi&lt;/font&gt;" style="rounded=1;whiteSpace=wrap;html=1;" vertex="1" parent="1">
          <mxGeometry x="140" y="140" width="120" height="90" as="geometry" />
        </mxCell>
        <mxCell id="gnzne0h1tfCOuvKG9ZBm-2" value="&lt;font style=&quot;font-size: 15px&quot;&gt;ODPS数据仓库&lt;/font&gt;" style="rounded=1;whiteSpace=wrap;html=1;" vertex="1" parent="1">
          <mxGeometry x="440" y="155" width="120" height="60" as="geometry" />
        </mxCell>
        <mxCell id="gnzne0h1tfCOuvKG9ZBm-3" value="&lt;font style=&quot;font-size: 16px&quot;&gt;FineReport&lt;br&gt;填报数据&lt;br&gt;&lt;/font&gt;" style="rounded=1;whiteSpace=wrap;html=1;" vertex="1" parent="1">
          <mxGeometry x="140" y="340" width="120" height="60" as="geometry" />
        </mxCell>
        <mxCell id="gnzne0h1tfCOuvKG9ZBm-8" value="" style="shape=flexArrow;endArrow=classic;html=1;exitX=1;exitY=0.5;exitDx=0;exitDy=0;entryX=0;entryY=0.5;entryDx=0;entryDy=0;" edge="1" parent="1" source="gnzne0h1tfCOuvKG9ZBm-1" target="gnzne0h1tfCOuvKG9ZBm-2">
          <mxGeometry width="50" height="50" relative="1" as="geometry">
            <mxPoint x="320" y="370" as="sourcePoint" />
            <mxPoint x="370" y="320" as="targetPoint" />
          </mxGeometry>
        </mxCell>
        <mxCell id="gnzne0h1tfCOuvKG9ZBm-9" value="数据集成" style="text;html=1;strokeColor=none;fillColor=none;align=center;verticalAlign=middle;whiteSpace=wrap;rounded=0;" vertex="1" parent="1">
          <mxGeometry x="320" y="150" width="50" height="20" as="geometry" />
        </mxCell>
        <mxCell id="gnzne0h1tfCOuvKG9ZBm-10" value="" style="shape=flexArrow;endArrow=classic;startArrow=classic;html=1;exitX=0.5;exitY=0;exitDx=0;exitDy=0;entryX=0.5;entryY=1;entryDx=0;entryDy=0;" edge="1" parent="1" source="gnzne0h1tfCOuvKG9ZBm-3" target="gnzne0h1tfCOuvKG9ZBm-1">
          <mxGeometry width="50" height="50" relative="1" as="geometry">
            <mxPoint x="320" y="360" as="sourcePoint" />
            <mxPoint x="370" y="310" as="targetPoint" />
          </mxGeometry>
        </mxCell>
        <mxCell id="gnzne0h1tfCOuvKG9ZBm-11" value="填报数据同步" style="text;html=1;strokeColor=none;fillColor=none;align=center;verticalAlign=middle;whiteSpace=wrap;rounded=0;" vertex="1" parent="1">
          <mxGeometry x="210" y="280" width="100" height="20" as="geometry" />
        </mxCell>
      </root>
    </mxGraphModel>
  </diagram>
</mxfile>
